<svg width="26" height="26" viewBox="0 0 26 26" fill="none" xmlns="http://www.w3.org/2000/svg">
<path d="M17.1818 5.5H13.7045V5.06C13.7045 2.266 11.5977 0 9 0C6.40227 0 4.29545 2.266 4.29545 5.06V5.5H0.818182C0.365625 5.5 0 5.89325 0 6.38V21.12C0 21.6068 0.365625 22 0.818182 22H17.1818C17.6344 22 18 21.6068 18 21.12V6.38C18 5.89325 17.6344 5.5 17.1818 5.5ZM11.8636 5.5H6.13636V5.06C6.13636 3.35775 7.41733 1.98 9 1.98C10.5827 1.98 11.8636 3.35775 11.8636 5.06V5.5Z" fill="white"/>
<rect x="10" y="10" width="16" height="16" rx="8" fill="#EA2027"/>
<path d="M17.1323 17.3325H17.9863C18.6631 17.3325 19.0015 17.0013 19.0015 16.3389C19.0015 16.0811 18.9209 15.8716 18.7598 15.7104C18.5986 15.5457 18.3713 15.4634 18.0776 15.4634C17.8377 15.4634 17.6283 15.5332 17.4492 15.6729C17.2738 15.8125 17.186 15.9862 17.186 16.1938H15.376C15.376 15.7821 15.4906 15.415 15.7197 15.0928C15.9489 14.7705 16.2658 14.5199 16.6704 14.3408C17.0786 14.1582 17.5262 14.0669 18.0132 14.0669C18.8833 14.0669 19.5672 14.2656 20.0649 14.6631C20.5627 15.0605 20.8115 15.6066 20.8115 16.3013C20.8115 16.6379 20.7077 16.9565 20.5 17.2573C20.2959 17.5545 19.9969 17.7962 19.603 17.9824C20.0184 18.1328 20.3442 18.362 20.5806 18.6699C20.8169 18.9743 20.9351 19.3521 20.9351 19.8032C20.9351 20.5015 20.6665 21.0601 20.1294 21.479C19.5923 21.8979 18.8869 22.1074 18.0132 22.1074C17.5011 22.1074 17.0249 22.0107 16.5845 21.8174C16.1476 21.6204 15.8164 21.3501 15.5908 21.0063C15.3652 20.659 15.2524 20.2651 15.2524 19.8247H17.0732C17.0732 20.0646 17.1699 20.2723 17.3633 20.4478C17.5566 20.6232 17.7948 20.7109 18.0776 20.7109C18.3963 20.7109 18.6506 20.6232 18.8403 20.4478C19.0301 20.2687 19.125 20.0413 19.125 19.7656C19.125 19.3717 19.0265 19.0924 18.8296 18.9277C18.6326 18.763 18.3605 18.6807 18.0132 18.6807H17.1323V17.3325Z" fill="white"/>
</svg>
